<?xml version="1.0" encoding="UTF-8"?>
<svg width="199px" height="45px" viewBox="0 0 199 45" version="1.1" xmlns="http://www.w3.org/2000/svg" xmlns:xlink="http://www.w3.org/1999/xlink">
    <!-- Generator: Sketch 50.2 (55047) - http://www.bohemiancoding.com/sketch -->
    <title>Page 1</title>
    <desc>Created with Sketch.</desc>
    <defs>
        <polygon id="path-1" points="0.0004 0.2424 50.9854 0.2424 50.9854 45 0.0004 45"></polygon>
    </defs>
    <g id="Symbols" stroke="none" stroke-width="1" fill="none" fill-rule="evenodd">
        <g id="menu" transform="translate(-50.000000, -31.000000)">
            <g id="Page-1" transform="translate(50.000000, 30.000000)">
                <g id="Group-17" transform="translate(61.000000, 7.758000)" fill="#6B174C">
                    <path d="M12.3774,21.2167 C13.3274,20.6697 14.0714,19.9047 14.6094,18.9227 C15.1464,17.9417 15.4154,16.8297 15.4154,15.5907 C15.4154,14.3507 15.1464,13.2397 14.6094,12.2577 C14.0714,11.2767 13.3274,10.5067 12.3774,9.9477 C11.4264,9.3907 10.3524,9.1117 9.1534,9.1117 C7.9344,9.1117 6.8484,9.3907 5.8984,9.9477 C4.9474,10.5067 4.2034,11.2767 3.6664,12.2577 C3.1284,13.2397 2.8604,14.3507 2.8604,15.5907 C2.8604,16.8297 3.1284,17.9417 3.6664,18.9227 C4.2034,19.9047 4.9474,20.6697 5.8984,21.2167 C6.8484,21.7647 7.9344,22.0377 9.1534,22.0377 C10.3524,22.0377 11.4264,21.7647 12.3774,21.2167 M13.5864,8.0417 C14.8884,8.7757 15.9114,9.7987 16.6554,11.1117 C17.3994,12.4237 17.7714,13.9157 17.7714,15.5907 L17.7714,21.9137 C17.7714,23.5687 17.4044,25.0657 16.6704,26.4087 C15.9374,27.7527 14.9194,28.8117 13.6174,29.5867 C12.3154,30.3627 10.8474,30.7487 9.2154,30.7487 C7.6244,30.7487 6.2084,30.4487 4.9684,29.8507 C3.7284,29.2507 2.6844,28.4137 1.8374,27.3397 C1.6514,27.1327 1.5584,26.8947 1.5584,26.6267 C1.5584,26.3167 1.7024,26.0477 1.9924,25.8207 C2.1984,25.6757 2.4264,25.6037 2.6744,25.6037 C2.8604,25.6037 3.0464,25.6507 3.2324,25.7427 C3.4184,25.8357 3.5634,25.9547 3.6664,26.0997 C4.2864,26.8847 5.0714,27.4937 6.0224,27.9287 C6.9724,28.3627 8.0474,28.5787 9.2464,28.5787 C10.4034,28.5787 11.4524,28.2947 12.3934,27.7267 C13.3334,27.1577 14.0714,26.3627 14.6094,25.3397 C15.1464,24.3177 15.4154,23.1447 15.4154,21.8207 L15.4154,20.4267 C14.7954,21.6047 13.9174,22.5287 12.7804,23.2007 C11.6434,23.8727 10.3524,24.2077 8.9054,24.2077 C7.2934,24.2077 5.8524,23.8417 4.5814,23.1087 C3.3104,22.3747 2.3174,21.3517 1.6054,20.0387 C0.8924,18.7267 0.5354,17.2437 0.5354,15.5907 C0.5354,13.9157 0.9074,12.4237 1.6514,11.1117 C2.3954,9.7987 3.4234,8.7757 4.7354,8.0417 C6.0484,7.3087 7.5204,6.9417 9.1534,6.9417 C10.8064,6.9417 12.2844,7.3087 13.5864,8.0417" id="Fill-1"></path>
                    <path d="M25.3432,10.537 C24.3092,11.509 23.6792,12.79 23.4522,14.382 L34.7982,14.382 C34.6332,12.79 34.0542,11.509 33.0622,10.537 C32.0702,9.566 30.7992,9.08 29.2492,9.08 C27.6782,9.08 26.3762,9.566 25.3432,10.537 M33.3102,8.011 C34.4882,8.724 35.4032,9.711 36.0532,10.972 C36.7042,12.232 37.0302,13.669 37.0302,15.28 C37.0302,15.611 36.9262,15.875 36.7202,16.071 C36.5132,16.267 36.2442,16.365 35.9142,16.365 L23.3902,16.365 C23.5552,18.06 24.2172,19.434 25.3742,20.488 C26.5312,21.542 27.9782,22.069 29.7142,22.069 C30.4582,22.069 31.2072,21.94 31.9622,21.682 C32.7162,21.424 33.3202,21.099 33.7752,20.705 C34.0432,20.499 34.3222,20.395 34.6122,20.395 C34.8392,20.395 35.0672,20.478 35.2942,20.643 C35.5622,20.891 35.6972,21.171 35.6972,21.48 C35.6972,21.749 35.5832,21.987 35.3562,22.193 C34.6742,22.772 33.8062,23.253 32.7522,23.635 C31.6982,24.017 30.6852,24.208 29.7142,24.208 C28.0602,24.208 26.5832,23.842 25.2812,23.108 C23.9792,22.375 22.9612,21.351 22.2282,20.039 C21.4942,18.726 21.1272,17.244 21.1272,15.591 C21.1272,13.916 21.4732,12.424 22.1662,11.111 C22.8582,9.799 23.8192,8.775 25.0492,8.042 C26.2782,7.308 27.6782,6.941 29.2492,6.941 C30.7782,6.941 32.1322,7.298 33.3102,8.011" id="Fill-3"></path>
                    <path d="M49.1825,22.0077 C49.3895,22.2357 49.4925,22.5247 49.4925,22.8747 C49.4925,23.2057 49.3685,23.4857 49.1205,23.7127 C48.8725,23.9407 48.5625,24.0537 48.1905,24.0537 L47.5395,24.0537 C46.4435,24.0537 45.4625,23.7897 44.5945,23.2627 C43.7265,22.7367 43.0495,22.0237 42.5645,21.1237 C42.0785,20.2247 41.8355,19.2067 41.8355,18.0697 L41.8355,9.7937 L39.8205,9.7937 C39.4895,9.7937 39.2265,9.6947 39.0305,9.4987 C38.8335,9.3027 38.7355,9.0607 38.7355,8.7707 C38.7355,8.4607 38.8335,8.2077 39.0305,8.0107 C39.2265,7.8147 39.4895,7.7167 39.8205,7.7167 L41.8355,7.7167 L41.8355,2.9107 C41.8355,2.5607 41.9445,2.2717 42.1615,2.0437 C42.3785,1.8167 42.6615,1.7017 43.0135,1.7017 C43.3645,1.7017 43.6545,1.8167 43.8815,2.0437 C44.1085,2.2717 44.2225,2.5607 44.2225,2.9107 L44.2225,7.7167 L47.7255,7.7167 C48.0565,7.7167 48.3195,7.8147 48.5155,8.0107 C48.7125,8.2077 48.8105,8.4607 48.8105,8.7707 C48.8105,9.0607 48.7125,9.3027 48.5155,9.4987 C48.3195,9.6947 48.0565,9.7937 47.7255,9.7937 L44.2225,9.7937 L44.2225,18.0697 C44.2225,19.1237 44.5325,19.9867 45.1525,20.6587 C45.7725,21.3307 46.5675,21.6657 47.5395,21.6657 L48.3765,21.6657 C48.7065,21.6657 48.9755,21.7797 49.1825,22.0077" id="Fill-5"></path>
                    <path d="M73.1762,7.3749 C73.3622,7.5619 73.4552,7.8099 73.4552,8.1189 C73.4552,8.3669 73.4142,8.5839 73.3312,8.7709 L68.4952,23.2779 C68.4122,23.5059 68.2732,23.6919 68.0772,23.8369 C67.8802,23.9809 67.6482,24.0539 67.3792,24.0539 C67.1112,24.0539 66.8682,23.9809 66.6512,23.8369 C66.4342,23.6919 66.2942,23.5059 66.2322,23.2779 L62.5122,10.9399 L58.7922,23.2779 C58.7092,23.5259 58.5652,23.7179 58.3582,23.8519 C58.1522,23.9859 57.9242,24.0539 57.6762,24.0539 C57.4072,24.0539 57.1752,23.9809 56.9792,23.8369 C56.7822,23.6919 56.6332,23.5059 56.5292,23.2779 L51.6932,8.7709 C51.6312,8.5219 51.6002,8.3059 51.6002,8.1189 C51.6002,7.4369 51.9302,7.0969 52.5922,7.0969 C53.1712,7.0969 53.5632,7.3959 53.7702,7.9949 L57.7382,20.0859 L61.3962,8.0259 C61.4792,7.7369 61.6182,7.5099 61.8152,7.3449 C62.0112,7.1799 62.2642,7.0969 62.5742,7.0969 C62.8842,7.0969 63.1372,7.1799 63.3342,7.3449 C63.5302,7.5099 63.6692,7.7369 63.7522,8.0259 L67.3172,20.0229 L71.2542,7.9949 C71.4612,7.3959 71.8432,7.0969 72.4012,7.0969 C72.7322,7.0969 72.9902,7.1889 73.1762,7.3749" id="Fill-7"></path>
                    <path d="M77.4535,7.4374 C77.6805,7.2094 77.9705,7.0964 78.3215,7.0964 C78.6725,7.0964 78.9565,7.2094 79.1745,7.4374 C79.3905,7.6654 79.4995,7.9544 79.4995,8.3054 L79.4995,22.8444 C79.4995,23.1964 79.3905,23.4854 79.1745,23.7124 C78.9565,23.9404 78.6725,24.0534 78.3215,24.0534 C77.9705,24.0534 77.6805,23.9404 77.4535,23.7124 C77.2255,23.4854 77.1125,23.1964 77.1125,22.8444 L77.1125,8.3054 C77.1125,7.9544 77.2255,7.6654 77.4535,7.4374 M79.4995,0.9584 C79.8295,1.2684 79.9955,1.6714 79.9955,2.1664 C79.9955,2.6434 79.8295,3.0454 79.4995,3.3764 C79.1685,3.7074 78.7655,3.8724 78.2905,3.8724 C77.8145,3.8724 77.4175,3.7074 77.0975,3.3764 C76.7765,3.0454 76.6165,2.6434 76.6165,2.1664 C76.6165,1.6714 76.7815,1.2684 77.1125,0.9584 C77.4425,0.6484 77.8465,0.4934 78.3215,0.4934 C78.7755,0.4934 79.1685,0.6484 79.4995,0.9584" id="Fill-9"></path>
                    <path d="M96.162,7.8407 C97.329,8.4607 98.244,9.3647 98.906,10.5527 C99.567,11.7407 99.897,13.1617 99.897,14.8157 L99.897,22.8747 C99.897,23.2057 99.784,23.4857 99.557,23.7127 C99.329,23.9407 99.05,24.0537 98.72,24.0537 C98.368,24.0537 98.079,23.9407 97.851,23.7127 C97.624,23.4857 97.511,23.2057 97.511,22.8747 L97.511,14.8157 C97.511,12.9767 96.999,11.5757 95.976,10.6147 C94.953,9.6537 93.615,9.1737 91.961,9.1737 C90.949,9.1737 90.034,9.3697 89.218,9.7627 C88.401,10.1547 87.756,10.6977 87.281,11.3897 C86.805,12.0827 86.567,12.8527 86.567,13.6987 L86.567,22.8747 C86.567,23.2277 86.459,23.5107 86.242,23.7277 C86.025,23.9447 85.741,24.0537 85.39,24.0537 C85.038,24.0537 84.749,23.9447 84.521,23.7277 C84.294,23.5107 84.181,23.2277 84.181,22.8747 L84.181,8.3057 C84.181,7.9537 84.294,7.6647 84.521,7.4377 C84.749,7.2097 85.038,7.0967 85.39,7.0967 C85.741,7.0967 86.025,7.2097 86.242,7.4377 C86.459,7.6647 86.567,7.9537 86.567,8.3057 L86.567,9.3597 C87.249,8.5947 88.076,7.9947 89.048,7.5617 C90.018,7.1277 91.073,6.9097 92.209,6.9097 C93.677,6.9097 94.994,7.2207 96.162,7.8407" id="Fill-11"></path>
                    <path d="M115.3349,21.2167 C116.2849,20.6697 117.0289,19.9047 117.5669,18.9227 C118.1039,17.9417 118.3729,16.8297 118.3729,15.5907 C118.3729,14.3507 118.1039,13.2397 117.5669,12.2577 C117.0289,11.2767 116.2849,10.5067 115.3349,9.9477 C114.3839,9.3907 113.3099,9.1117 112.1109,9.1117 C110.8919,9.1117 109.8059,9.3907 108.8559,9.9477 C107.9049,10.5067 107.1609,11.2767 106.6239,12.2577 C106.0859,13.2397 105.8179,14.3507 105.8179,15.5907 C105.8179,16.8297 106.0859,17.9417 106.6239,18.9227 C107.1609,19.9047 107.9049,20.6697 108.8559,21.2167 C109.8059,21.7647 110.8919,22.0377 112.1109,22.0377 C113.3099,22.0377 114.3839,21.7647 115.3349,21.2167 M116.5439,8.0417 C117.8459,8.7757 118.8689,9.7987 119.6129,11.1117 C120.3569,12.4237 120.7289,13.9157 120.7289,15.5907 L120.7289,21.9137 C120.7289,23.5687 120.3619,25.0657 119.6279,26.4087 C118.8949,27.7527 117.8769,28.8117 116.5749,29.5867 C115.2729,30.3627 113.8049,30.7487 112.1729,30.7487 C110.5819,30.7487 109.1659,30.4487 107.9259,29.8507 C106.6859,29.2507 105.6419,28.4137 104.7949,27.3397 C104.6089,27.1327 104.5159,26.8947 104.5159,26.6267 C104.5159,26.3167 104.6599,26.0477 104.9499,25.8207 C105.1559,25.6757 105.3839,25.6037 105.6319,25.6037 C105.8179,25.6037 106.0039,25.6507 106.1899,25.7427 C106.3759,25.8357 106.5209,25.9547 106.6239,26.0997 C107.2439,26.8847 108.0289,27.4937 108.9799,27.9287 C109.9299,28.3627 111.0049,28.5787 112.2039,28.5787 C113.3609,28.5787 114.4099,28.2947 115.3509,27.7267 C116.2909,27.1577 117.0289,26.3627 117.5669,25.3397 C118.1039,24.3177 118.3729,23.1447 118.3729,21.8207 L118.3729,20.4267 C117.7529,21.6047 116.8749,22.5287 115.7379,23.2007 C114.6009,23.8727 113.3099,24.2077 111.8629,24.2077 C110.2509,24.2077 108.8099,23.8417 107.5389,23.1087 C106.2679,22.3747 105.2749,21.3517 104.5629,20.0387 C103.8499,18.7267 103.4929,17.2437 103.4929,15.5907 C103.4929,13.9157 103.8649,12.4237 104.6089,11.1117 C105.3529,9.7987 106.3809,8.7757 107.6929,8.0417 C109.0059,7.3087 110.4779,6.9417 112.1109,6.9417 C113.7639,6.9417 115.2419,7.3087 116.5439,8.0417" id="Fill-13"></path>
                    <path d="M134.0278,7.6385 C135.0408,8.1035 135.8568,8.7495 136.4768,9.5755 C136.6418,9.8455 136.7248,10.0825 136.7248,10.2885 C136.7248,10.6415 136.5588,10.9195 136.2288,11.1265 C136.0838,11.2305 135.8878,11.2815 135.6398,11.2815 C135.2058,11.2815 134.8438,11.1265 134.5548,10.8165 C133.5418,9.6595 132.1568,9.0795 130.4008,9.0795 C129.2638,9.0795 128.3548,9.3125 127.6728,9.7785 C126.9908,10.2425 126.6498,10.8265 126.6498,11.5295 C126.6498,12.2735 126.9698,12.8675 127.6108,13.3115 C128.2518,13.7565 129.3878,14.1135 131.0208,14.3815 C133.2318,14.7535 134.8128,15.3585 135.7638,16.1955 C136.7148,17.0325 137.1898,18.0705 137.1898,19.3105 C137.1898,20.2615 136.9058,21.1085 136.3378,21.8525 C135.7688,22.5965 134.9788,23.1755 133.9658,23.5885 C132.9528,24.0015 131.8058,24.2075 130.5248,24.2075 C129.2428,24.2075 128.0138,23.9915 126.8358,23.5575 C125.6578,23.1225 124.7068,22.5135 123.9838,21.7285 C123.7778,21.4805 123.6738,21.2425 123.6738,21.0155 C123.6738,20.6635 123.8398,20.3545 124.1698,20.0855 C124.4178,19.8995 124.6758,19.8065 124.9448,19.8065 C125.2958,19.8065 125.5958,19.9515 125.8438,20.2405 C126.3398,20.8195 126.9958,21.2635 127.8128,21.5735 C128.6288,21.8835 129.5328,22.0375 130.5248,22.0375 C131.9708,22.0375 133.0558,21.7895 133.7798,21.2945 C134.5028,20.7985 134.8748,20.1475 134.8958,19.3415 C134.8958,18.5975 134.5338,17.9775 133.8108,17.4815 C133.0878,16.9855 131.9408,16.6135 130.3698,16.3655 C128.3438,16.0345 126.8308,15.4615 125.8288,14.6445 C124.8258,13.8285 124.3248,12.8415 124.3248,11.6845 C124.3248,10.1755 124.9088,9.0075 126.0768,8.1815 C127.2438,7.3555 128.7058,6.9415 130.4628,6.9415 C131.8268,6.9415 133.0148,7.1735 134.0278,7.6385" id="Fill-15"></path>
                </g>
                <g id="Group-20" transform="translate(0.000000, 0.758000)">
                    <mask id="mask-2" fill="white">
                        <use xlink:href="#path-1"></use>
                    </mask>
                    <g id="Clip-19"></g>
                    <path d="M26.6884,23.2704 C31.0864,23.5714 35.1514,25.5834 38.0674,28.9184 C45.2244,26.5564 48.8524,22.4194 48.8524,16.6154 L48.8524,2.3994 C37.3614,2.9204 27.9124,11.8204 26.6884,23.2704 M2.1324,2.3994 L2.1324,16.6154 C2.1324,22.4194 5.7604,26.5564 12.9174,28.9184 C15.8344,25.5844 19.8984,23.5714 24.2974,23.2704 C23.0714,11.8204 13.6234,2.9204 2.1324,2.3994 M26.5594,28.5644 C26.5604,29.3594 26.5624,30.1864 26.5634,30.8384 C28.3014,30.7844 31.9244,30.5504 35.7684,29.5834 C33.2984,27.1244 30.0504,25.6434 26.5614,25.4004 C26.5634,25.5334 26.5634,25.6654 26.5634,25.7974 C26.5634,25.7984 26.5614,27.1284 26.5594,28.5644 M15.2164,29.5834 C19.0654,30.5514 22.6934,30.7844 24.4224,30.8384 L24.4264,28.7854 L24.4214,25.7994 C24.4214,25.6664 24.4224,25.5334 24.4244,25.4004 C20.9344,25.6434 17.6874,27.1244 15.2164,29.5834 M26.5604,34.4154 C26.6234,36.2434 27.2794,37.7514 28.5604,39.0134 C31.7094,42.1174 37.6734,42.7224 40.0894,42.8384 C40.0834,41.5654 40.0814,40.7494 40.1124,40.2144 C40.0994,40.1474 40.0914,40.0774 40.0914,40.0054 C40.0914,36.8594 39.1314,33.8934 37.3064,31.3814 C32.8604,32.6344 28.5174,32.9134 26.5604,32.9724 L26.5594,33.0734 L26.5634,34.1104 C26.5634,34.2124 26.5624,34.3144 26.5604,34.4154 M13.6784,31.3814 C11.8544,33.8924 10.8934,36.8594 10.8934,40.0054 L10.8924,42.8384 C13.3054,42.7224 19.2754,42.1194 22.4254,39.0134 C23.7054,37.7524 24.3614,36.2464 24.4254,34.4154 C24.4224,34.3154 24.4214,34.2154 24.4214,34.1154 L24.4264,33.0714 L24.4254,32.9724 C22.4684,32.9134 18.1244,32.6344 13.6784,31.3814 M41.0254,44.9994 C39.7574,44.9994 31.4304,44.8324 27.0664,40.5384 C26.4264,39.9074 25.9014,39.2194 25.4924,38.4764 C25.0844,39.2194 24.5594,39.9074 23.9184,40.5384 C19.2884,45.0954 10.1944,45.0044 9.8084,44.9994 C9.2264,44.9904 8.7584,44.5144 8.7584,43.9324 L8.7604,40.0044 C8.7604,36.6934 9.7444,33.4434 11.5544,30.7054 C3.9864,28.0014 0.0004,23.1524 0.0004,16.6154 L0.0004,1.3084 C0.0004,0.7194 0.4774,0.2424 1.0664,0.2424 C12.5224,0.2424 22.3274,7.8764 25.4924,18.4444 C28.6584,7.8764 38.4624,0.2424 49.9184,0.2424 C50.5084,0.2424 50.9854,0.7194 50.9854,1.3084 L50.9854,16.6154 C50.9854,23.1524 46.9984,28.0004 39.4304,30.7054 C41.2294,33.4254 42.2114,36.6514 42.2254,39.9404 C42.2284,39.9944 42.2274,40.0474 42.2234,40.1004 C42.2104,40.3464 42.2194,42.1634 42.2234,43.0394 L42.2274,43.9324 C42.2274,44.5144 41.7594,44.9904 41.1774,44.9994 C41.1544,44.9994 41.1044,44.9994 41.0254,44.9994" id="Fill-18" fill="#6B174C" mask="url(#mask-2)"></path>
                </g>
            </g>
        </g>
    </g>
</svg>