<?xml version="1.0" encoding="utf-8"?>
<!-- Generator: Adobe Illustrator 22.1.0, SVG Export Plug-In . SVG Version: 6.00 Build 0)  -->
<svg version="1.1" id="artwork" xmlns="http://www.w3.org/2000/svg" xmlns:xlink="http://www.w3.org/1999/xlink" x="0px" y="0px"
	 viewBox="0 0 119.4 40" style="enable-background:new 0 0 119.4 40;" xml:space="preserve">
<style type="text/css">
	.st0{fill:#A6A6A6;}
	.st1{fill:#FFFFFF;stroke:#FFFFFF;stroke-width:0.2;stroke-miterlimit:10;}
	.st2{fill:#FFFFFF;}
	.st3{fill:url(#SVGID_1_);}
	.st4{fill:url(#SVGID_2_);}
	.st5{fill:url(#SVGID_3_);}
	.st6{fill:url(#SVGID_4_);}
	.st7{opacity:0.2;enable-background:new    ;}
	.st8{opacity:0.12;enable-background:new    ;}
	.st9{opacity:0.25;fill:#FFFFFF;enable-background:new    ;}
</style>
<g>
	<g>
		<g>
			<path class="st0" d="M109.9,0H9.5C9.1,0,8.8,0,8.4,0C8.1,0,7.8,0,7.5,0c-0.7,0-1.3,0.1-2,0.2C4.8,0.3,4.2,0.5,3.6,0.8
				C3,1.1,2.5,1.5,2,2C1.5,2.5,1.1,3,0.8,3.6C0.5,4.2,0.3,4.8,0.2,5.5C0.1,6.2,0,6.8,0,7.5c0,0.3,0,0.6,0,0.9v23.1
				c0,0.3,0,0.6,0,0.9c0,0.7,0.1,1.3,0.2,2c0.1,0.7,0.3,1.3,0.6,1.9c0.3,0.6,0.7,1.1,1.2,1.6c0.5,0.5,1,0.9,1.6,1.2
				c0.6,0.3,1.2,0.5,1.9,0.6c0.7,0.1,1.3,0.2,2,0.2c0.3,0,0.6,0,0.9,0c0.4,0,0.7,0,1.1,0h100.4c0.4,0,0.7,0,1.1,0c0.3,0,0.6,0,0.9,0
				c0.7,0,1.3-0.1,2-0.2c0.7-0.1,1.3-0.3,1.9-0.6c0.6-0.3,1.1-0.7,1.6-1.2c0.5-0.5,0.9-1,1.2-1.6c0.3-0.6,0.5-1.2,0.6-1.9
				c0.1-0.7,0.2-1.3,0.2-2c0-0.3,0-0.6,0-0.9c0-0.4,0-0.7,0-1.1V9.5c0-0.4,0-0.7,0-1.1c0-0.3,0-0.6,0-0.9c0-0.7-0.1-1.3-0.2-2
				c-0.1-0.7-0.3-1.3-0.6-1.9c-0.6-1.2-1.6-2.2-2.8-2.8c-0.6-0.3-1.2-0.5-1.9-0.6c-0.7-0.1-1.3-0.2-2-0.2c-0.3,0-0.6,0-0.9,0
				C110.6,0,110.2,0,109.9,0L109.9,0z"/>
			<path d="M8.4,39c-0.3,0-0.6,0-0.9,0c-0.6,0-1.2-0.1-1.9-0.2c-0.6-0.1-1.1-0.3-1.7-0.5c-0.5-0.3-1-0.6-1.4-1
				c-0.4-0.4-0.8-0.9-1-1.4c-0.3-0.5-0.4-1.1-0.5-1.7c-0.1-0.6-0.2-1.2-0.2-1.9c0-0.2,0-0.9,0-0.9v-23c0,0,0-0.7,0-0.9
				c0-0.6,0.1-1.3,0.2-1.9C1.1,5.1,1.3,4.5,1.6,4c0.3-0.5,0.6-1,1-1.4C3,2.2,3.5,1.9,4,1.6C4.5,1.3,5.1,1.1,5.7,1
				c0.6-0.1,1.2-0.2,1.9-0.2l0.9,0H111l0.9,0c0.6,0,1.2,0.1,1.9,0.2c0.6,0.1,1.1,0.3,1.7,0.5c1,0.5,1.9,1.4,2.4,2.4
				c0.3,0.5,0.4,1.1,0.5,1.6c0.1,0.6,0.2,1.3,0.2,1.9c0,0.3,0,0.6,0,0.9c0,0.4,0,0.7,0,1.1v20.9c0,0.4,0,0.7,0,1.1
				c0,0.3,0,0.6,0,0.9c0,0.6-0.1,1.2-0.2,1.8c-0.1,0.6-0.3,1.1-0.5,1.7c-0.3,0.5-0.6,1-1,1.4c-0.4,0.4-0.9,0.8-1.4,1
				c-0.5,0.3-1.1,0.5-1.7,0.5c-0.6,0.1-1.2,0.2-1.9,0.2c-0.3,0-0.6,0-0.9,0l-1.1,0L8.4,39z"/>
		</g>
		<g id="_Group_">
			<g id="_Group_2">
				<g id="_Group_3">
					<path id="_Path_" class="st2" d="M24.7,20.3c0-1.7,0.9-3.3,2.4-4.1c-0.9-1.3-2.4-2.1-4-2.2c-1.7-0.2-3.3,1-4.2,1
						c-0.9,0-2.2-1-3.6-1c-1.9,0.1-3.6,1.1-4.5,2.7c-1.9,3.3-0.5,8.3,1.4,11c0.9,1.3,2,2.8,3.4,2.7c1.4-0.1,1.9-0.9,3.6-0.9
						c1.7,0,2.1,0.9,3.6,0.8c1.5,0,2.4-1.3,3.3-2.7c0.7-0.9,1.2-2,1.5-3.1C25.9,23.9,24.7,22.2,24.7,20.3z"/>
					<path id="_Path_2" class="st2" d="M22,12.2c0.8-1,1.2-2.2,1.1-3.5c-1.2,0.1-2.4,0.7-3.2,1.7c-0.8,0.9-1.2,2.1-1.1,3.4
						C20,13.7,21.2,13.2,22,12.2z"/>
				</g>
			</g>
			<g>
				<path class="st2" d="M42.2,27.1h-4.7l-1.1,3.3h-2L38.8,18h2.1l4.5,12.4h-2L42.2,27.1z M38,25.5h3.7l-1.8-5.4h-0.1L38,25.5z"/>
				<path class="st2" d="M55,25.9c0,2.8-1.5,4.6-3.8,4.6c-1.2,0.1-2.3-0.6-2.8-1.6h0v4.5h-1.9v-12h1.8v1.5h0c0.6-1,1.7-1.6,2.9-1.6
					C53.5,21.3,55,23.1,55,25.9z M53.1,25.9c0-1.8-0.9-3-2.4-3c-1.4,0-2.4,1.2-2.4,3c0,1.8,1,3,2.4,3C52.2,29,53.1,27.8,53.1,25.9z"
					/>
				<path class="st2" d="M65,25.9c0,2.8-1.5,4.6-3.8,4.6c-1.2,0.1-2.3-0.6-2.8-1.6h0v4.5h-1.9v-12h1.8v1.5h0c0.6-1,1.7-1.6,2.9-1.6
					C63.5,21.3,65,23.1,65,25.9z M63.1,25.9c0-1.8-0.9-3-2.4-3c-1.4,0-2.4,1.2-2.4,3c0,1.8,1,3,2.4,3C62.1,29,63.1,27.8,63.1,25.9
					L63.1,25.9z"/>
				<path class="st2" d="M71.5,27c0.1,1.2,1.3,2,3,2c1.6,0,2.7-0.8,2.7-1.9c0-1-0.7-1.5-2.3-1.9l-1.6-0.4C71,24.2,70,23.2,70,21.4
					c0-2.1,1.9-3.6,4.5-3.6c2.6,0,4.4,1.5,4.5,3.6h-1.9c-0.1-1.2-1.1-2-2.6-2s-2.5,0.8-2.5,1.9c0,0.9,0.7,1.4,2.2,1.8l1.4,0.3
					c2.5,0.6,3.6,1.6,3.6,3.4c0,2.3-1.8,3.8-4.8,3.8c-2.7,0-4.6-1.4-4.7-3.7L71.5,27z"/>
				<path class="st2" d="M83.2,19.3v2.1h1.7v1.5h-1.7v5c0,0.8,0.3,1.1,1.1,1.1c0.2,0,0.4,0,0.6,0v1.5c-0.3,0.1-0.7,0.1-1,0.1
					c-1.8,0-2.5-0.7-2.5-2.4v-5.2H80v-1.5h1.3v-2.1H83.2z"/>
				<path class="st2" d="M85.9,25.9c0-2.8,1.7-4.6,4.3-4.6c2.6,0,4.3,1.8,4.3,4.6c0,2.9-1.7,4.6-4.3,4.6
					C87.5,30.5,85.9,28.8,85.9,25.9z M92.6,25.9c0-1.9-0.9-3.1-2.4-3.1c-1.5,0-2.4,1.2-2.4,3.1c0,2,0.9,3.1,2.4,3.1
					C91.7,29,92.6,27.9,92.6,25.9L92.6,25.9z"/>
				<path class="st2" d="M96,21.4h1.8v1.5h0c0.2-1,1.2-1.7,2.2-1.6c0.2,0,0.4,0,0.6,0.1v1.7C100.3,23,100,23,99.8,23
					c-1,0-1.9,0.8-1.9,1.8c0,0.1,0,0.2,0,0.3v5.4H96L96,21.4z"/>
				<path class="st2" d="M109.1,27.8c-0.2,1.6-1.8,2.8-3.9,2.8c-2.6,0-4.3-1.8-4.3-4.6c0-2.8,1.6-4.7,4.2-4.7c2.5,0,4.1,1.7,4.1,4.5
					v0.6h-6.4v0.1c-0.1,1.3,0.8,2.4,2.1,2.6c0.1,0,0.2,0,0.3,0c0.9,0.1,1.7-0.4,2.1-1.3L109.1,27.8z M102.9,25.1h4.5
					c0.1-1.2-0.9-2.2-2-2.3c-0.1,0-0.1,0-0.2,0C103.9,22.8,102.9,23.8,102.9,25.1C102.9,25.1,102.9,25.1,102.9,25.1z"/>
			</g>
		</g>
	</g>
	<g id="_Group_4">
		<g>
			<path class="st2" d="M37.7,8.7c1.5-0.1,2.7,1,2.8,2.4c0,0.2,0,0.3,0,0.5c0,1.9-1,3-2.8,3h-2.2v-6H37.7z M36.5,13.8h1.1
				c1,0.1,1.9-0.7,2-1.8c0-0.1,0-0.3,0-0.4c0.1-1-0.6-2-1.6-2.1c-0.1,0-0.2,0-0.4,0h-1.1V13.8z"/>
			<path class="st2" d="M41.6,12.4c-0.1-1.2,0.7-2.2,1.9-2.3c1.2-0.1,2.2,0.7,2.3,1.9c0,0.1,0,0.3,0,0.4c0.1,1.2-0.7,2.2-1.9,2.3
				c-1.2,0.1-2.2-0.7-2.3-1.9C41.6,12.7,41.6,12.6,41.6,12.4z M44.9,12.4c0-1-0.4-1.5-1.2-1.5c-0.8,0-1.2,0.6-1.2,1.5
				c0,1,0.4,1.5,1.2,1.5C44.5,14,44.9,13.4,44.9,12.4L44.9,12.4z"/>
			<path class="st2" d="M51.5,14.7h-0.9l-0.9-3.3h-0.1l-0.9,3.3h-0.9l-1.2-4.5h0.9l0.8,3.4h0.1l0.9-3.4H50l0.9,3.4H51l0.8-3.4h0.9
				L51.5,14.7z"/>
			<path class="st2" d="M53.7,10.2h0.9v0.7h0.1c0.2-0.5,0.8-0.8,1.3-0.8c0.8-0.1,1.5,0.5,1.6,1.3c0,0.1,0,0.2,0,0.3v2.9h-0.9V12
				c0-0.7-0.3-1.1-1-1.1c-0.6,0-1.1,0.4-1.1,1c0,0.1,0,0.1,0,0.2v2.6h-0.9L53.7,10.2z"/>
			<path class="st2" d="M59,8.4h0.9v6.2H59V8.4z"/>
			<path class="st2" d="M61.1,12.4c-0.1-1.2,0.7-2.2,1.9-2.3c1.2-0.1,2.2,0.7,2.3,1.9c0,0.1,0,0.3,0,0.4c0.1,1.2-0.7,2.2-1.9,2.3
				c-1.2,0.1-2.2-0.7-2.3-1.9C61.1,12.7,61.1,12.6,61.1,12.4z M64.4,12.4c0-1-0.4-1.5-1.2-1.5c-0.8,0-1.2,0.6-1.2,1.5
				c0,1,0.4,1.5,1.2,1.5C64,14,64.4,13.4,64.4,12.4z"/>
			<path class="st2" d="M66.3,13.4c0-0.8,0.6-1.3,1.7-1.3l1.2-0.1v-0.4c0-0.5-0.3-0.7-0.9-0.7c-0.5,0-0.8,0.2-0.9,0.5h-0.9
				c0.1-0.8,0.8-1.3,1.8-1.3c1.1,0,1.8,0.6,1.8,1.5v3.1h-0.9V14h-0.1c-0.3,0.5-0.8,0.7-1.3,0.7c-0.7,0.1-1.4-0.5-1.5-1.2
				C66.3,13.5,66.3,13.4,66.3,13.4z M69.1,13v-0.4L68,12.7c-0.6,0-0.9,0.3-0.9,0.6c0,0.4,0.4,0.6,0.8,0.6
				C68.6,14.1,69.1,13.6,69.1,13C69.1,13,69.1,13,69.1,13z"/>
			<path class="st2" d="M71.2,12.4c0-1.4,0.7-2.3,1.9-2.3c0.6,0,1.1,0.3,1.4,0.8h0.1V8.4h0.9v6.2h-0.8V14h-0.1
				c-0.3,0.5-0.8,0.8-1.4,0.8C71.9,14.7,71.2,13.8,71.2,12.4z M72.1,12.4c0,1,0.4,1.5,1.2,1.5c0.7,0,1.2-0.6,1.2-1.5
				c0-0.9-0.5-1.5-1.2-1.5C72.6,10.9,72.1,11.5,72.1,12.4L72.1,12.4z"/>
			<path class="st2" d="M79.1,12.4c-0.1-1.2,0.7-2.2,1.9-2.3c1.2-0.1,2.2,0.7,2.3,1.9c0,0.1,0,0.3,0,0.4c0.1,1.2-0.7,2.2-1.9,2.3
				c-1.2,0.1-2.2-0.7-2.3-1.9C79,12.7,79,12.6,79.1,12.4z M82.4,12.4c0-1-0.4-1.5-1.2-1.5c-0.8,0-1.2,0.6-1.2,1.5
				c0,1,0.4,1.5,1.2,1.5C81.9,14,82.4,13.4,82.4,12.4z"/>
			<path class="st2" d="M84.5,10.2h0.9v0.7h0.1c0.2-0.5,0.8-0.8,1.3-0.8c0.8-0.1,1.5,0.5,1.6,1.3c0,0.1,0,0.2,0,0.3v2.9h-0.9V12
				c0-0.7-0.3-1.1-1-1.1c-0.6,0-1.1,0.4-1.1,1c0,0.1,0,0.1,0,0.2v2.6h-0.9V10.2z"/>
			<path class="st2" d="M93.3,9.1v1.1h1v0.7h-1v2.3c0,0.5,0.2,0.7,0.6,0.7c0.1,0,0.2,0,0.3,0v0.7c-0.2,0-0.3,0-0.5,0
				c-1,0-1.4-0.3-1.4-1.2v-2.5h-0.7v-0.7h0.7V9.1H93.3z"/>
			<path class="st2" d="M95.5,8.4h0.9v2.5h0.1c0.2-0.5,0.8-0.9,1.4-0.8c0.8,0,1.5,0.6,1.6,1.4c0,0.1,0,0.2,0,0.3v2.9h-0.9V12
				c0-0.7-0.3-1.1-1-1.1c-0.6,0-1.1,0.4-1.1,1c0,0.1,0,0.1,0,0.2v2.6h-0.9L95.5,8.4z"/>
			<path class="st2" d="M104.5,13.5c-0.2,0.8-1.1,1.4-1.9,1.3c-1.1,0-2.1-0.9-2.1-2c0-0.1,0-0.2,0-0.3c-0.2-1.1,0.6-2.2,1.8-2.3
				c0.1,0,0.2,0,0.3,0c1.3,0,2,0.9,2,2.3v0.3h-3.2v0c-0.1,0.7,0.4,1.2,1.1,1.3c0,0,0.1,0,0.1,0c0.4,0.1,0.9-0.2,1.1-0.5L104.5,13.5z
				 M101.4,12h2.3c0-0.6-0.4-1.1-1-1.2c0,0-0.1,0-0.1,0C101.9,10.8,101.4,11.3,101.4,12C101.4,12,101.4,12,101.4,12L101.4,12z"/>
		</g>
	</g>
</g>
</svg>
